<mxfile host="app.diagrams.net" agent="Mozilla/5.0 (X11; Linux x86_64; rv:134.0) Gecko/20100101 Firefox/134.0" version="26.0.16">
  <diagram name="PÃ¡gina-1" id="Pu0nokxnrZLM9DPjROEs">
    <mxGraphModel dx="1861" dy="1150" grid="1" gridSize="10" guides="1" tooltips="1" connect="1" arrows="1" fold="1" page="1" pageScale="1" pageWidth="827" pageHeight="1169" math="0" shadow="0">
      <root>
        <mxCell id="0" />
        <mxCell id="1" parent="0" />
        <mxCell id="pv9t1AvhECy30CCjf2E--49" style="edgeStyle=orthogonalEdgeStyle;rounded=0;orthogonalLoop=1;jettySize=auto;html=1;entryX=0;entryY=0.5;entryDx=0;entryDy=0;" edge="1" parent="1" source="TkE53SrEO5YB9DNX2DDW-7" target="TkE53SrEO5YB9DNX2DDW-18">
          <mxGeometry relative="1" as="geometry" />
        </mxCell>
        <mxCell id="TkE53SrEO5YB9DNX2DDW-7" value="pipe[0]&lt;br&gt;&lt;div&gt;fd = 5&lt;/div&gt;" style="shape=cylinder3;whiteSpace=wrap;html=1;boundedLbl=1;backgroundOutline=1;size=15;direction=north;fillColor=#60a917;fontColor=#ffffff;strokeColor=#2D7600;" parent="1" vertex="1">
          <mxGeometry x="127.5" y="450" width="170" height="30" as="geometry" />
        </mxCell>
        <mxCell id="TkE53SrEO5YB9DNX2DDW-8" value="infille&lt;div&gt;fd = 3&lt;/div&gt;" style="shape=cube;whiteSpace=wrap;html=1;boundedLbl=1;backgroundOutline=1;darkOpacity=0.05;darkOpacity2=0.1;" parent="1" vertex="1">
          <mxGeometry x="10" y="30" width="120" height="80" as="geometry" />
        </mxCell>
        <mxCell id="TkE53SrEO5YB9DNX2DDW-9" value="data->fds->outfile&lt;div&gt;fd = 4&lt;/div&gt;" style="shape=cube;whiteSpace=wrap;html=1;boundedLbl=1;backgroundOutline=1;darkOpacity=0.05;darkOpacity2=0.1;" parent="1" vertex="1">
          <mxGeometry x="640" y="950" width="120" height="80" as="geometry" />
        </mxCell>
        <mxCell id="TkE53SrEO5YB9DNX2DDW-17" value="pipe[1]&lt;div&gt;fd = 6&lt;/div&gt;" style="shape=cylinder3;whiteSpace=wrap;html=1;boundedLbl=1;backgroundOutline=1;size=15;direction=south;fillColor=light-dark(#A20025,#FF3333);fontColor=#ffffff;strokeColor=#6F0000;" parent="1" vertex="1">
          <mxGeometry x="122.5" y="480" width="175" height="30" as="geometry" />
        </mxCell>
        <mxCell id="TkE53SrEO5YB9DNX2DDW-18" value="&lt;span style=&quot;color: rgb(0, 0, 0); font-family: Helvetica; font-size: 12px; font-style: normal; font-variant-ligatures: normal; font-variant-caps: normal; font-weight: 400; letter-spacing: normal; orphans: 2; text-align: center; text-indent: 0px; text-transform: none; widows: 2; word-spacing: 0px; -webkit-text-stroke-width: 0px; white-space: normal; background-color: rgb(251, 251, 251); text-decoration-thickness: initial; text-decoration-style: initial; text-decoration-color: initial; display: inline !important; float: none;&quot;&gt;parent PID 8963&lt;/span&gt;" style="shape=process;whiteSpace=wrap;html=1;backgroundOutline=1;" parent="1" vertex="1">
          <mxGeometry x="-60" y="465" width="120" height="60" as="geometry" />
        </mxCell>
        <mxCell id="TkE53SrEO5YB9DNX2DDW-19" value="&lt;span style=&quot;color: rgb(0, 0, 0); font-family: Helvetica; font-size: 12px; font-style: normal; font-variant-ligatures: normal; font-variant-caps: normal; font-weight: 400; letter-spacing: normal; orphans: 2; text-align: center; text-indent: 0px; text-transform: none; widows: 2; word-spacing: 0px; -webkit-text-stroke-width: 0px; white-space: normal; background-color: rgb(251, 251, 251); text-decoration-thickness: initial; text-decoration-style: initial; text-decoration-color: initial; display: inline !important; float: none;&quot;&gt;child 1 PID 8964&lt;/span&gt;" style="shape=process;whiteSpace=wrap;html=1;backgroundOutline=1;" parent="1" vertex="1">
          <mxGeometry x="370" y="470" width="120" height="60" as="geometry" />
        </mxCell>
        <mxCell id="TkE53SrEO5YB9DNX2DDW-20" value="&lt;span style=&quot;color: rgb(0, 0, 0); font-family: Helvetica; font-size: 12px; font-style: normal; font-variant-ligatures: normal; font-variant-caps: normal; font-weight: 400; letter-spacing: normal; orphans: 2; text-align: center; text-indent: 0px; text-transform: none; widows: 2; word-spacing: 0px; -webkit-text-stroke-width: 0px; white-space: normal; background-color: rgb(251, 251, 251); text-decoration-thickness: initial; text-decoration-style: initial; text-decoration-color: initial; display: inline !important; float: none;&quot;&gt;child 2 PID 8965&lt;/span&gt;" style="shape=process;whiteSpace=wrap;html=1;backgroundOutline=1;" parent="1" vertex="1">
          <mxGeometry x="370" y="650" width="120" height="60" as="geometry" />
        </mxCell>
        <mxCell id="TkE53SrEO5YB9DNX2DDW-21" value="&lt;span style=&quot;color: rgb(0, 0, 0); font-family: Helvetica; font-size: 12px; font-style: normal; font-variant-ligatures: normal; font-variant-caps: normal; font-weight: 400; letter-spacing: normal; orphans: 2; text-align: center; text-indent: 0px; text-transform: none; widows: 2; word-spacing: 0px; -webkit-text-stroke-width: 0px; white-space: normal; background-color: rgb(251, 251, 251); text-decoration-thickness: initial; text-decoration-style: initial; text-decoration-color: initial; display: inline !important; float: none;&quot;&gt;final child PID 8966&lt;/span&gt;" style="shape=process;whiteSpace=wrap;html=1;backgroundOutline=1;" parent="1" vertex="1">
          <mxGeometry x="370" y="900" width="120" height="60" as="geometry" />
        </mxCell>
        <mxCell id="TkE53SrEO5YB9DNX2DDW-22" value="pipe[0]&lt;div&gt;fd = 5&lt;/div&gt;" style="shape=cylinder3;whiteSpace=wrap;html=1;boundedLbl=1;backgroundOutline=1;size=15;direction=north;fillColor=light-dark(#A20025,#FF3333);fontColor=#ffffff;strokeColor=#6F0000;" parent="1" vertex="1">
          <mxGeometry x="580" y="470" width="170" height="30" as="geometry" />
        </mxCell>
        <mxCell id="TkE53SrEO5YB9DNX2DDW-23" value="pipe[1]&lt;div&gt;fd = 6&lt;/div&gt;" style="shape=cylinder3;whiteSpace=wrap;html=1;boundedLbl=1;backgroundOutline=1;size=15;direction=south;fillColor=#60a917;fontColor=#ffffff;strokeColor=#2D7600;" parent="1" vertex="1">
          <mxGeometry x="575" y="500" width="175" height="30" as="geometry" />
        </mxCell>
        <mxCell id="TkE53SrEO5YB9DNX2DDW-25" style="edgeStyle=orthogonalEdgeStyle;rounded=0;orthogonalLoop=1;jettySize=auto;html=1;entryX=0.5;entryY=1;entryDx=0;entryDy=0;entryPerimeter=0;" parent="1" source="TkE53SrEO5YB9DNX2DDW-19" target="TkE53SrEO5YB9DNX2DDW-23" edge="1">
          <mxGeometry relative="1" as="geometry" />
        </mxCell>
        <mxCell id="TkE53SrEO5YB9DNX2DDW-45" value="STDOUT" style="edgeLabel;html=1;align=center;verticalAlign=middle;resizable=0;points=[];" parent="TkE53SrEO5YB9DNX2DDW-25" vertex="1" connectable="0">
          <mxGeometry x="-0.2608" y="-1" relative="1" as="geometry">
            <mxPoint as="offset" />
          </mxGeometry>
        </mxCell>
        <mxCell id="TkE53SrEO5YB9DNX2DDW-31" value="STDOUT&lt;div&gt;&lt;br&gt;&lt;/div&gt;" style="edgeStyle=orthogonalEdgeStyle;rounded=0;orthogonalLoop=1;jettySize=auto;html=1;entryX=0;entryY=0;entryDx=0;entryDy=30;entryPerimeter=0;" parent="1" source="TkE53SrEO5YB9DNX2DDW-21" target="TkE53SrEO5YB9DNX2DDW-9" edge="1">
          <mxGeometry relative="1" as="geometry" />
        </mxCell>
        <mxCell id="cVPtAOOOHcKWrL9LYY-s-1" value="pipe[0]&lt;div&gt;fd = 3&lt;br&gt;&lt;/div&gt;" style="shape=cylinder3;whiteSpace=wrap;html=1;boundedLbl=1;backgroundOutline=1;size=15;direction=north;fillColor=light-dark(#A20025,#FF3333);" parent="1" vertex="1">
          <mxGeometry x="580" y="650" width="170" height="30" as="geometry" />
        </mxCell>
        <mxCell id="cVPtAOOOHcKWrL9LYY-s-2" value="pipe[1]&lt;div&gt;fd = 6&lt;/div&gt;" style="shape=cylinder3;whiteSpace=wrap;html=1;boundedLbl=1;backgroundOutline=1;size=15;direction=south;fillColor=#60a917;fontColor=#ffffff;strokeColor=#2D7600;" parent="1" vertex="1">
          <mxGeometry x="575" y="680" width="175" height="30" as="geometry" />
        </mxCell>
        <mxCell id="cVPtAOOOHcKWrL9LYY-s-3" style="edgeStyle=orthogonalEdgeStyle;rounded=0;orthogonalLoop=1;jettySize=auto;html=1;entryX=0.5;entryY=1;entryDx=0;entryDy=0;entryPerimeter=0;exitX=1;exitY=0.5;exitDx=0;exitDy=0;" parent="1" source="TkE53SrEO5YB9DNX2DDW-20" target="cVPtAOOOHcKWrL9LYY-s-2" edge="1">
          <mxGeometry relative="1" as="geometry">
            <mxPoint x="480" y="610" as="sourcePoint" />
            <mxPoint x="566" y="625" as="targetPoint" />
          </mxGeometry>
        </mxCell>
        <mxCell id="cVPtAOOOHcKWrL9LYY-s-4" value="STDOUT" style="edgeLabel;html=1;align=center;verticalAlign=middle;resizable=0;points=[];" parent="cVPtAOOOHcKWrL9LYY-s-3" vertex="1" connectable="0">
          <mxGeometry x="-0.2608" y="-1" relative="1" as="geometry">
            <mxPoint as="offset" />
          </mxGeometry>
        </mxCell>
        <mxCell id="CRQ6YsXnufIw0pY0c4kj-1" value="&lt;div&gt;first iteration&lt;/div&gt;" style="text;html=1;align=center;verticalAlign=middle;resizable=0;points=[];autosize=1;strokeColor=none;fillColor=none;" parent="1" vertex="1">
          <mxGeometry x="167.5" y="429" width="90" height="30" as="geometry" />
        </mxCell>
        <mxCell id="CRQ6YsXnufIw0pY0c4kj-2" value="first iteration" style="text;html=1;align=center;verticalAlign=middle;resizable=0;points=[];autosize=1;strokeColor=none;fillColor=none;" parent="1" vertex="1">
          <mxGeometry x="617.5" y="450" width="90" height="30" as="geometry" />
        </mxCell>
        <mxCell id="CRQ6YsXnufIw0pY0c4kj-4" value="&lt;div&gt;last iteration&lt;/div&gt;" style="text;html=1;align=center;verticalAlign=middle;resizable=0;points=[];autosize=1;strokeColor=none;fillColor=none;" parent="1" vertex="1">
          <mxGeometry x="625" y="630" width="90" height="30" as="geometry" />
        </mxCell>
        <mxCell id="pv9t1AvhECy30CCjf2E--7" style="edgeStyle=orthogonalEdgeStyle;rounded=0;orthogonalLoop=1;jettySize=auto;html=1;entryX=0;entryY=0.5;entryDx=0;entryDy=0;exitX=0.5;exitY=0;exitDx=0;exitDy=0;exitPerimeter=0;" edge="1" parent="1" source="pv9t1AvhECy30CCjf2E--1" target="TkE53SrEO5YB9DNX2DDW-19">
          <mxGeometry relative="1" as="geometry">
            <Array as="points">
              <mxPoint x="340" y="215" />
              <mxPoint x="340" y="500" />
            </Array>
          </mxGeometry>
        </mxCell>
        <mxCell id="pv9t1AvhECy30CCjf2E--9" value="&lt;div&gt;STDIN&lt;/div&gt;" style="edgeLabel;html=1;align=center;verticalAlign=middle;resizable=0;points=[];" vertex="1" connectable="0" parent="pv9t1AvhECy30CCjf2E--7">
          <mxGeometry x="-0.1931" y="1" relative="1" as="geometry">
            <mxPoint as="offset" />
          </mxGeometry>
        </mxCell>
        <mxCell id="pv9t1AvhECy30CCjf2E--1" value="data->fds->prev_pipe&lt;br&gt;&lt;div&gt;fd = 3&lt;br&gt;&lt;/div&gt;" style="shape=cylinder3;whiteSpace=wrap;html=1;boundedLbl=1;backgroundOutline=1;size=15;direction=north;fillColor=light-dark(#60A917,#3333FF);fontColor=#ffffff;strokeColor=#2D7600;" vertex="1" parent="1">
          <mxGeometry x="447.5" y="200" width="170" height="30" as="geometry" />
        </mxCell>
        <mxCell id="pv9t1AvhECy30CCjf2E--4" value="" style="endArrow=none;dashed=1;html=1;rounded=0;" edge="1" parent="1">
          <mxGeometry width="50" height="50" relative="1" as="geometry">
            <mxPoint y="560" as="sourcePoint" />
            <mxPoint y="560" as="targetPoint" />
            <Array as="points" />
          </mxGeometry>
        </mxCell>
        <mxCell id="pv9t1AvhECy30CCjf2E--12" style="edgeStyle=orthogonalEdgeStyle;rounded=0;orthogonalLoop=1;jettySize=auto;html=1;entryX=0;entryY=0.5;entryDx=0;entryDy=0;exitX=0.5;exitY=0;exitDx=0;exitDy=0;exitPerimeter=0;" edge="1" parent="1" source="pv9t1AvhECy30CCjf2E--10" target="TkE53SrEO5YB9DNX2DDW-20">
          <mxGeometry relative="1" as="geometry">
            <Array as="points">
              <mxPoint x="840" y="615" />
              <mxPoint x="840" y="610" />
              <mxPoint x="329" y="610" />
              <mxPoint x="329" y="640" />
              <mxPoint x="330" y="640" />
              <mxPoint x="330" y="680" />
            </Array>
          </mxGeometry>
        </mxCell>
        <mxCell id="pv9t1AvhECy30CCjf2E--16" value="&lt;div&gt;STDIN&lt;/div&gt;" style="edgeLabel;html=1;align=center;verticalAlign=middle;resizable=0;points=[];" vertex="1" connectable="0" parent="pv9t1AvhECy30CCjf2E--12">
          <mxGeometry x="-0.0617" y="1" relative="1" as="geometry">
            <mxPoint as="offset" />
          </mxGeometry>
        </mxCell>
        <mxCell id="pv9t1AvhECy30CCjf2E--10" value="data->fds->prev_pipe&lt;br&gt;&lt;div&gt;fd = 5&lt;br&gt;&lt;/div&gt;" style="shape=cylinder3;whiteSpace=wrap;html=1;boundedLbl=1;backgroundOutline=1;size=15;direction=north;fillColor=light-dark(#60A917,#3333FF);fontColor=#ffffff;strokeColor=#2D7600;" vertex="1" parent="1">
          <mxGeometry x="860" y="450" width="170" height="30" as="geometry" />
        </mxCell>
        <mxCell id="pv9t1AvhECy30CCjf2E--11" style="edgeStyle=orthogonalEdgeStyle;rounded=0;orthogonalLoop=1;jettySize=auto;html=1;entryX=0.5;entryY=1;entryDx=0;entryDy=0;entryPerimeter=0;" edge="1" parent="1" source="TkE53SrEO5YB9DNX2DDW-23" target="TkE53SrEO5YB9DNX2DDW-7">
          <mxGeometry relative="1" as="geometry">
            <mxPoint x="420" y="340" as="targetPoint" />
            <Array as="points">
              <mxPoint x="790" y="515" />
              <mxPoint x="790" y="352" />
            </Array>
          </mxGeometry>
        </mxCell>
        <mxCell id="pv9t1AvhECy30CCjf2E--21" style="edgeStyle=orthogonalEdgeStyle;rounded=0;orthogonalLoop=1;jettySize=auto;html=1;entryX=0;entryY=0.5;entryDx=0;entryDy=0;exitX=0.5;exitY=0;exitDx=0;exitDy=0;exitPerimeter=0;" edge="1" parent="1" source="pv9t1AvhECy30CCjf2E--19" target="TkE53SrEO5YB9DNX2DDW-21">
          <mxGeometry relative="1" as="geometry">
            <Array as="points">
              <mxPoint x="840" y="860" />
              <mxPoint x="320" y="860" />
            </Array>
          </mxGeometry>
        </mxCell>
        <mxCell id="pv9t1AvhECy30CCjf2E--38" value="STDIN" style="edgeLabel;html=1;align=center;verticalAlign=middle;resizable=0;points=[];" vertex="1" connectable="0" parent="pv9t1AvhECy30CCjf2E--21">
          <mxGeometry x="-0.0064" y="1" relative="1" as="geometry">
            <mxPoint as="offset" />
          </mxGeometry>
        </mxCell>
        <mxCell id="pv9t1AvhECy30CCjf2E--19" value="data->fds->prev_pipe&lt;br&gt;&lt;div&gt;fd = 3&lt;br&gt;&lt;/div&gt;" style="shape=cylinder3;whiteSpace=wrap;html=1;boundedLbl=1;backgroundOutline=1;size=15;direction=north;fillColor=light-dark(#60A917,#3333FF);fontColor=#ffffff;strokeColor=#2D7600;" vertex="1" parent="1">
          <mxGeometry x="850" y="626" width="170" height="30" as="geometry" />
        </mxCell>
        <mxCell id="pv9t1AvhECy30CCjf2E--29" value="" style="edgeStyle=orthogonalEdgeStyle;rounded=0;orthogonalLoop=1;jettySize=auto;html=1;entryX=0.5;entryY=1;entryDx=0;entryDy=0;entryPerimeter=0;exitX=0.5;exitY=0;exitDx=0;exitDy=0;exitPerimeter=0;" edge="1" parent="1" source="cVPtAOOOHcKWrL9LYY-s-2" target="pv9t1AvhECy30CCjf2E--39">
          <mxGeometry relative="1" as="geometry">
            <mxPoint x="750" y="695" as="sourcePoint" />
            <mxPoint x="1030" y="805" as="targetPoint" />
            <Array as="points">
              <mxPoint x="800" y="695" />
              <mxPoint x="800" y="750" />
              <mxPoint x="310" y="750" />
              <mxPoint x="310" y="641" />
            </Array>
          </mxGeometry>
        </mxCell>
        <mxCell id="pv9t1AvhECy30CCjf2E--30" value="STDOUT" style="edgeLabel;html=1;align=center;verticalAlign=middle;resizable=0;points=[];" vertex="1" connectable="0" parent="pv9t1AvhECy30CCjf2E--29">
          <mxGeometry x="-0.0837" y="-2" relative="1" as="geometry">
            <mxPoint as="offset" />
          </mxGeometry>
        </mxCell>
        <mxCell id="pv9t1AvhECy30CCjf2E--25" value="" style="shape=sumEllipse;perimeter=ellipsePerimeter;whiteSpace=wrap;html=1;backgroundOutline=1;" vertex="1" parent="1">
          <mxGeometry x="940" y="740" width="80" height="80" as="geometry" />
        </mxCell>
        <mxCell id="pv9t1AvhECy30CCjf2E--32" value="" style="endArrow=none;dashed=1;html=1;dashPattern=1 3;strokeWidth=2;rounded=0;exitX=1;exitY=0;exitDx=0;exitDy=120;exitPerimeter=0;entryX=1;entryY=0.5;entryDx=0;entryDy=0;entryPerimeter=0;" edge="1" parent="1" source="TkE53SrEO5YB9DNX2DDW-7" target="pv9t1AvhECy30CCjf2E--10">
          <mxGeometry width="50" height="50" relative="1" as="geometry">
            <mxPoint x="480" y="540" as="sourcePoint" />
            <mxPoint x="530" y="490" as="targetPoint" />
          </mxGeometry>
        </mxCell>
        <mxCell id="pv9t1AvhECy30CCjf2E--35" value="data->fds->prev_pipe = pipe[0]" style="edgeLabel;html=1;align=center;verticalAlign=middle;resizable=0;points=[];" vertex="1" connectable="0" parent="pv9t1AvhECy30CCjf2E--32">
          <mxGeometry x="0.1523" y="-1" relative="1" as="geometry">
            <mxPoint x="199" y="81" as="offset" />
          </mxGeometry>
        </mxCell>
        <mxCell id="pv9t1AvhECy30CCjf2E--55" value="data->fds->prev_pipe = pipe[0]" style="edgeLabel;html=1;align=center;verticalAlign=middle;resizable=0;points=[];" vertex="1" connectable="0" parent="pv9t1AvhECy30CCjf2E--32">
          <mxGeometry x="0.6387" relative="1" as="geometry">
            <mxPoint x="1" as="offset" />
          </mxGeometry>
        </mxCell>
        <mxCell id="pv9t1AvhECy30CCjf2E--33" value="" style="endArrow=none;dashed=1;html=1;dashPattern=1 3;strokeWidth=2;rounded=0;exitX=1;exitY=0.5;exitDx=0;exitDy=0;exitPerimeter=0;edgeStyle=orthogonalEdgeStyle;" edge="1" parent="1" source="pv9t1AvhECy30CCjf2E--1" target="TkE53SrEO5YB9DNX2DDW-8">
          <mxGeometry width="50" height="50" relative="1" as="geometry">
            <mxPoint x="480" y="540" as="sourcePoint" />
            <mxPoint x="530" y="490" as="targetPoint" />
            <Array as="points">
              <mxPoint x="533" y="150" />
              <mxPoint x="70" y="150" />
            </Array>
          </mxGeometry>
        </mxCell>
        <mxCell id="pv9t1AvhECy30CCjf2E--34" value="data->fds->prev_pipe = data->fds->infile" style="edgeLabel;html=1;align=center;verticalAlign=middle;resizable=0;points=[];" vertex="1" connectable="0" parent="pv9t1AvhECy30CCjf2E--33">
          <mxGeometry x="-0.1135" y="1" relative="1" as="geometry">
            <mxPoint as="offset" />
          </mxGeometry>
        </mxCell>
        <mxCell id="pv9t1AvhECy30CCjf2E--51" style="edgeStyle=orthogonalEdgeStyle;rounded=0;orthogonalLoop=1;jettySize=auto;html=1;entryX=0;entryY=0.5;entryDx=0;entryDy=0;" edge="1" parent="1" source="pv9t1AvhECy30CCjf2E--39" target="pv9t1AvhECy30CCjf2E--44">
          <mxGeometry relative="1" as="geometry" />
        </mxCell>
        <mxCell id="pv9t1AvhECy30CCjf2E--39" value="pipe[0]&lt;br&gt;&lt;div&gt;fd = 3&lt;br&gt;&lt;/div&gt;" style="shape=cylinder3;whiteSpace=wrap;html=1;boundedLbl=1;backgroundOutline=1;size=15;direction=north;fillColor=#60a917;fontColor=#ffffff;strokeColor=#2D7600;" vertex="1" parent="1">
          <mxGeometry x="125" y="626" width="170" height="30" as="geometry" />
        </mxCell>
        <mxCell id="pv9t1AvhECy30CCjf2E--40" value="pipe[1]&lt;div&gt;fd = 6&lt;/div&gt;" style="shape=cylinder3;whiteSpace=wrap;html=1;boundedLbl=1;backgroundOutline=1;size=15;direction=south;fillColor=light-dark(#A20025,#FF3333);fontColor=#ffffff;strokeColor=#6F0000;" vertex="1" parent="1">
          <mxGeometry x="120" y="655" width="175" height="30" as="geometry" />
        </mxCell>
        <mxCell id="pv9t1AvhECy30CCjf2E--41" value="last iteration" style="text;html=1;align=center;verticalAlign=middle;resizable=0;points=[];autosize=1;strokeColor=none;fillColor=none;" vertex="1" parent="1">
          <mxGeometry x="165" y="605" width="90" height="30" as="geometry" />
        </mxCell>
        <mxCell id="pv9t1AvhECy30CCjf2E--44" value="&lt;span style=&quot;color: rgb(0, 0, 0); font-family: Helvetica; font-size: 12px; font-style: normal; font-variant-ligatures: normal; font-variant-caps: normal; font-weight: 400; letter-spacing: normal; orphans: 2; text-align: center; text-indent: 0px; text-transform: none; widows: 2; word-spacing: 0px; -webkit-text-stroke-width: 0px; white-space: normal; background-color: rgb(251, 251, 251); text-decoration-thickness: initial; text-decoration-style: initial; text-decoration-color: initial; display: inline !important; float: none;&quot;&gt;parent PID 8963&lt;/span&gt;" style="shape=process;whiteSpace=wrap;html=1;backgroundOutline=1;" vertex="1" parent="1">
          <mxGeometry x="-60" y="650" width="120" height="60" as="geometry" />
        </mxCell>
        <mxCell id="pv9t1AvhECy30CCjf2E--47" style="edgeStyle=orthogonalEdgeStyle;rounded=0;orthogonalLoop=1;jettySize=auto;html=1;entryX=0.5;entryY=1;entryDx=0;entryDy=0;entryPerimeter=0;" edge="1" parent="1" source="pv9t1AvhECy30CCjf2E--44" target="pv9t1AvhECy30CCjf2E--40">
          <mxGeometry relative="1" as="geometry" />
        </mxCell>
        <mxCell id="pv9t1AvhECy30CCjf2E--52" value="" style="endArrow=none;dashed=1;html=1;dashPattern=1 3;strokeWidth=2;rounded=0;exitX=1;exitY=0.5;exitDx=0;exitDy=0;exitPerimeter=0;entryX=1;entryY=0.5;entryDx=0;entryDy=0;entryPerimeter=0;" edge="1" parent="1" source="pv9t1AvhECy30CCjf2E--39" target="pv9t1AvhECy30CCjf2E--19">
          <mxGeometry width="50" height="50" relative="1" as="geometry">
            <mxPoint x="420" y="670" as="sourcePoint" />
            <mxPoint x="470" y="620" as="targetPoint" />
          </mxGeometry>
        </mxCell>
        <mxCell id="pv9t1AvhECy30CCjf2E--53" value="data->fds->prev_pipe = pipe[0]" style="edgeLabel;html=1;align=center;verticalAlign=middle;resizable=0;points=[];" vertex="1" connectable="0" parent="pv9t1AvhECy30CCjf2E--52">
          <mxGeometry x="0.6468" y="-2" relative="1" as="geometry">
            <mxPoint as="offset" />
          </mxGeometry>
        </mxCell>
        <mxCell id="pv9t1AvhECy30CCjf2E--54" style="edgeStyle=orthogonalEdgeStyle;rounded=0;orthogonalLoop=1;jettySize=auto;html=1;entryX=0.5;entryY=1;entryDx=0;entryDy=0;entryPerimeter=0;" edge="1" parent="1" source="TkE53SrEO5YB9DNX2DDW-18" target="TkE53SrEO5YB9DNX2DDW-17">
          <mxGeometry relative="1" as="geometry" />
        </mxCell>
      </root>
    </mxGraphModel>
  </diagram>
</mxfile>
